<svg width="41" height="35" viewBox="0 0 41 35" fill="none" xmlns="http://www.w3.org/2000/svg">
<path d="M29.2935 29.4281C26.5015 32.2232 22.8268 33.9638 18.8953 34.3533C14.9639 34.7428 11.0191 33.7572 7.73285 31.5643C4.44665 29.3715 2.02241 26.1071 0.873162 22.3272C-0.276085 18.5474 -0.079236 14.4861 1.43017 10.8351C2.93957 7.18416 5.66815 4.16949 9.15103 2.30472C12.6339 0.439948 16.6556 -0.15955 20.5309 0.608363C24.4062 1.37628 27.8954 3.46409 30.404 6.5161C32.9126 9.56811 34.2854 13.3955 34.2885 17.3462H30.0193C30.0219 14.3829 28.9969 11.5104 27.1189 9.21816C25.241 6.92593 22.6263 5.3558 19.7205 4.77533C16.8146 4.19485 13.7974 4.63995 11.1829 6.03477C8.56846 7.4296 6.51854 9.68785 5.38249 12.4247C4.24644 15.1615 4.09455 18.2076 4.9527 21.0439C5.81085 23.8802 7.62595 26.3312 10.0887 27.9792C12.5514 29.6272 15.5094 30.3702 18.4586 30.0817C21.4078 29.7932 24.1657 28.491 26.2623 26.3969L29.2935 29.4281ZM23.6154 17.3462H40.6923L32.1539 25.8846L23.6154 17.3462Z" fill="white"/>
</svg>
