<svg width="28" height="29" viewBox="0 0 28 29" fill="none" xmlns="http://www.w3.org/2000/svg">
<path d="M14 29C21.732 29 28 22.5081 28 14.5C28 6.49187 21.732 0 14 0C6.26801 0 0 6.49187 0 14.5C0 22.5081 6.26801 29 14 29Z" fill="url(#paint0_linear_4_196)"/>
<path style="mix-blend-mode:screen" d="M13.9999 28.9326C21.696 28.9326 27.9348 22.4709 27.9348 14.5C27.9348 6.52912 21.696 0.0674438 13.9999 0.0674438C6.30392 0.0674438 0.0650635 6.52912 0.0650635 14.5C0.0650635 22.4709 6.30392 28.9326 13.9999 28.9326Z" fill="url(#paint1_radial_4_196)"/>
<path opacity="0.3" d="M14 28.5639C6.33798 28.5639 0.115762 22.1899 0.00289406 14.2827C0.00289406 14.3546 0 14.4281 0 14.5C0 22.5076 6.26853 29 14 29C21.7315 29 28 22.5076 28 14.5C28 14.4266 27.9986 14.3546 27.9971 14.2827C27.8842 22.1899 21.662 28.5654 14 28.5654V28.5639Z" fill="#FFEA83"/>
<path d="M14 0.54553C21.6447 0.54553 27.8567 6.89106 27.9971 14.7728C27.9986 14.6813 28 14.5914 28 14.5C28 6.4924 21.7315 0 14 0C6.26853 0 0 6.4924 0 14.5C0 14.5914 0.00144703 14.6813 0.00289406 14.7728C0.143256 6.89106 6.35535 0.54553 14 0.54553Z" fill="#FFEA83"/>
<path style="mix-blend-mode:screen" opacity="0.5" d="M13.9999 0.0539551C6.42765 0.0539551 0.264753 6.30806 0.0650635 14.1013C1.60615 15.047 4.02992 14.2902 5.61442 13.4689C6.97752 12.817 8.65462 13.0343 10.1219 13.1437C13.7901 13.4689 17.3542 15.098 21.0224 14.1208C21.756 13.9035 22.8037 12.9264 23.5373 13.5783C24.8295 14.6933 26.5659 14.7908 27.9348 14.1118C27.7395 6.31406 21.5751 0.0539551 13.9999 0.0539551Z" fill="url(#paint2_linear_4_196)"/>
<path d="M14.0001 25.7298C19.9882 25.7298 24.8426 20.702 24.8426 14.5C24.8426 8.29793 19.9882 3.27017 14.0001 3.27017C8.01186 3.27017 3.15747 8.29793 3.15747 14.5C3.15747 20.702 8.01186 25.7298 14.0001 25.7298Z" fill="url(#paint3_linear_4_196)"/>
<path d="M13.9999 25.1843C19.6972 25.1843 24.3158 20.4008 24.3158 14.5C24.3158 8.59922 19.6972 3.8157 13.9999 3.8157C8.30265 3.8157 3.68408 8.59922 3.68408 14.5C3.68408 20.4008 8.30265 25.1843 13.9999 25.1843Z" fill="#D68738"/>
<path d="M14 24.7482C19.4647 24.7482 23.8948 20.1599 23.8948 14.5C23.8948 8.84009 19.4647 4.25183 14 4.25183C8.53527 4.25183 4.10522 8.84009 4.10522 14.5C4.10522 20.1599 8.53527 24.7482 14 24.7482Z" fill="url(#paint4_radial_4_196)"/>
<path opacity="0.2" d="M14 23.9853C8.62285 23.9853 4.24848 19.762 4.10812 14.2272C4.10522 14.3172 4.10522 14.4086 4.10522 14.5C4.10522 20.1606 8.53458 24.7482 14 24.7482C19.4654 24.7482 23.8948 20.1606 23.8948 14.5C23.8948 14.4086 23.8948 14.3187 23.8919 14.2272C23.753 19.7605 19.3772 23.9853 14 23.9853Z" fill="#FFEA83"/>
<path opacity="0.1" d="M20.1875 13.0882C20.0833 12.757 19.8127 12.5202 19.4799 12.4708L16.2371 11.9822L14.7872 8.9383C14.6382 8.62656 14.3372 8.43173 14.0015 8.43173C13.6658 8.43173 13.3648 8.62507 13.2157 8.9383L11.7658 11.9822L8.52302 12.4708C8.19021 12.5202 7.91961 12.757 7.81542 13.0882C7.71124 13.4194 7.79661 13.7761 8.03682 14.0189L10.3839 16.3884L9.82969 19.7335C9.77325 20.0767 9.90638 20.4169 10.1784 20.6207C10.4447 20.8216 10.8093 20.8485 11.1016 20.6897L14.0029 19.11L16.9042 20.6897C17.0344 20.7601 17.1734 20.7946 17.3137 20.7946C17.4946 20.7946 17.674 20.7361 17.8274 20.6207C18.0995 20.4169 18.2326 20.0752 18.1761 19.7335L17.6219 16.3884L19.969 14.0189C20.2092 13.7761 20.2946 13.4194 20.1904 13.0882H20.1875Z" fill="#FFEA83"/>
<path d="M19.9863 13.0463C19.9067 12.7945 19.7013 12.6146 19.448 12.5772L16.0953 12.0721L14.5961 8.92631C14.4833 8.68951 14.2546 8.54114 13.9985 8.54114C13.7424 8.54114 13.5138 8.68801 13.4009 8.92631L11.9018 12.0721L8.54901 12.5772C8.29578 12.6146 8.09031 12.7945 8.01072 13.0463C7.93113 13.298 7.99625 13.5693 8.17858 13.7536L10.394 16.0931L9.82095 19.5521C9.77754 19.8129 9.87739 20.1127 10.0843 20.2685C10.2015 20.357 10.5575 20.5593 10.9974 20.3884L13.9956 18.7548L16.9939 20.3869C17.2196 20.5098 17.5958 20.5128 17.8028 20.357C18.0097 20.2011 18.2152 19.8114 18.1718 19.5506L17.5987 16.0916L19.8141 13.7521C19.9965 13.5678 20.0616 13.2965 19.982 13.0448L19.9863 13.0463Z" fill="url(#paint5_linear_4_196)"/>
<path opacity="0.1" d="M19.9863 12.3928C19.9067 12.141 19.7013 11.9612 19.448 11.9237L16.0953 11.4187L14.5961 8.27137C14.4833 8.03457 14.2546 7.8862 13.9985 7.8862C13.7424 7.8862 13.5138 8.03307 13.4009 8.27137L11.9018 11.4187L8.54901 11.9237C8.29578 11.9612 8.09031 12.141 8.01072 12.3928C7.93113 12.6446 7.99625 12.9159 8.17858 13.1002L10.6052 15.5491L10.0322 19.0081C9.98881 19.2689 10.0901 19.5267 10.297 19.6825C10.4142 19.771 10.5503 19.8144 10.6877 19.8144C10.7934 19.8144 10.9004 19.7874 10.9988 19.735L13.9971 18.1014L16.9953 19.7335C17.2211 19.8564 17.4902 19.8369 17.6971 19.681C17.9041 19.5252 18.0053 19.2674 17.9619 19.0066L17.3889 15.5476L19.8156 13.0987C19.9979 12.9144 20.063 12.6431 19.9834 12.3913L19.9863 12.3928Z" fill="#D37F24"/>
<path d="M14.4559 8.56211L15.9926 11.7858L19.4279 12.3029C19.8446 12.3658 20.011 12.8964 19.71 13.2006L17.224 15.7094L17.8101 19.2524C17.881 19.6825 17.4454 20.0107 17.0735 19.8069L14.0015 18.1344L10.9295 19.8069C10.5561 20.0092 10.1206 19.6825 10.1929 19.2524L10.779 15.7094L8.29298 13.2006C7.99199 12.8964 8.1584 12.3658 8.57515 12.3029L12.0104 11.7858L13.5471 8.56211C13.7338 8.17095 14.2721 8.17095 14.4588 8.56211H14.4559Z" fill="url(#paint6_linear_4_196)"/>
<path opacity="0.3" d="M10.7312 15.9897L10.1915 19.2524C10.177 19.3378 10.1843 19.4203 10.206 19.4937L10.779 16.0362L10.7327 15.9897H10.7312Z" fill="#FFEA83"/>
<path d="M8.57367 12.6296L12.2187 12.1126L13.7555 8.88883C13.9421 8.49767 14.0594 8.49767 14.246 8.88883L15.7828 12.1126L19.4278 12.6296C19.6362 12.6611 19.7809 12.8095 19.8373 12.9863C19.9299 12.6941 19.7578 12.3508 19.4278 12.3014L15.9926 11.7843L14.4558 8.56061C14.2692 8.16945 13.7309 8.16945 13.5442 8.56061L12.0075 11.7843L8.57222 12.3014C8.2423 12.3508 8.0701 12.6941 8.16271 12.9863C8.21915 12.808 8.36385 12.6596 8.57222 12.6296H8.57367Z" fill="#FFEA83"/>
<path opacity="0.3" d="M17.2688 15.9897L17.2225 16.0362L17.7956 19.4937C17.8173 19.4188 17.8245 19.3378 17.81 19.2524L17.2703 15.9897H17.2688Z" fill="#FFEA83"/>
<path style="mix-blend-mode:screen" opacity="0.8" d="M14.4559 8.56211L15.9926 11.7858L19.4279 12.3029C19.8446 12.3658 20.011 12.8964 19.71 13.2006L17.224 15.7094L17.8101 19.2524C17.881 19.6825 17.4454 20.0107 17.0735 19.8069L14.0015 18.1344L10.9295 19.8069C10.5561 20.0092 10.1206 19.6825 10.1929 19.2524L10.779 15.7094L8.29298 13.2006C7.99199 12.8964 8.1584 12.3658 8.57515 12.3029L12.0104 11.7858L13.5471 8.56211C13.7338 8.17095 14.2721 8.17095 14.4588 8.56211H14.4559Z" fill="url(#paint7_radial_4_196)"/>
<path style="mix-blend-mode:screen" opacity="0.6" d="M19.4264 12.3029L15.9912 11.7858L14.4544 8.56211C14.2677 8.17095 13.7294 8.17095 13.5428 8.56211L12.006 11.7858L8.57079 12.3029C8.39425 12.3299 8.26257 12.4408 8.19312 12.5816C8.62867 13.1452 8.79508 13.2441 9.50557 13.7626C11.6805 15.035 17.1198 14.8162 18.6291 13.5453C19.1905 13.0717 19.3917 13.0088 19.7317 12.4752C19.6565 12.3868 19.5523 12.3224 19.4235 12.3029H19.4264Z" fill="url(#paint8_linear_4_196)"/>
<defs>
<linearGradient id="paint0_linear_4_196" x1="14" y1="0" x2="14" y2="29" gradientUnits="userSpaceOnUse">
<stop stop-color="#F8BE4F"/>
<stop offset="0.11" stop-color="#FBC450"/>
<stop offset="0.3" stop-color="#FFCB52"/>
<stop offset="1" stop-color="#D17D3D"/>
</linearGradient>
<radialGradient id="paint1_radial_4_196" cx="0" cy="0" r="1" gradientUnits="userSpaceOnUse" gradientTransform="translate(13.8596 -1.99478) scale(11.1494 11.5475)">
<stop stop-color="#FFDF7D"/>
<stop offset="1"/>
</radialGradient>
<linearGradient id="paint2_linear_4_196" x1="13.9999" y1="28.7437" x2="13.9999" y2="7.70186" gradientUnits="userSpaceOnUse">
<stop stop-color="#FFCA85"/>
<stop offset="1"/>
</linearGradient>
<linearGradient id="paint3_linear_4_196" x1="14.0001" y1="25.7298" x2="14.0001" y2="-1.8629" gradientUnits="userSpaceOnUse">
<stop stop-color="#FBC450"/>
<stop offset="1" stop-color="#E09744"/>
</linearGradient>
<radialGradient id="paint4_radial_4_196" cx="0" cy="0" r="1" gradientUnits="userSpaceOnUse" gradientTransform="translate(13.9132 8.74496) scale(19.2744 19.9628)">
<stop offset="0.3" stop-color="#FFCB52"/>
<stop offset="1" stop-color="#D17D3D"/>
</radialGradient>
<linearGradient id="paint5_linear_4_196" x1="14" y1="11.6" x2="14" y2="20.5068" gradientUnits="userSpaceOnUse">
<stop stop-color="#F2A746"/>
<stop offset="0.31" stop-color="#E89A43"/>
<stop offset="1" stop-color="#D17D3D"/>
</linearGradient>
<linearGradient id="paint6_linear_4_196" x1="14.0001" y1="8.26836" x2="14.0001" y2="28.5249" gradientUnits="userSpaceOnUse">
<stop stop-color="#FFD863"/>
<stop offset="0.71" stop-color="#ECAB49"/>
<stop offset="1" stop-color="#FCC550"/>
</linearGradient>
<radialGradient id="paint7_radial_4_196" cx="0" cy="0" r="1" gradientUnits="userSpaceOnUse" gradientTransform="translate(13.8944 5.87343) scale(9.89478 10.2482)">
<stop stop-color="#FFE06E"/>
<stop offset="1"/>
</radialGradient>
<linearGradient id="paint8_linear_4_196" x1="13.9653" y1="19.7455" x2="13.9653" y2="12.5412" gradientUnits="userSpaceOnUse">
<stop stop-color="#FFDD8F"/>
<stop offset="1"/>
</linearGradient>
</defs>
</svg>
